
<svg version="1.0" xmlns="http://www.w3.org/2000/svg"
 width="601.000000pt" height="334.000000pt" viewBox="0 0 601.000000 334.000000"
 preserveAspectRatio="xMidYMid meet">

<path d="M0 1670 l0 -1670 2925 0 c1609 0 2925 1 2925 3 0 2 -133 136 -295
298 l-295 295 2 178 c3 158 5 180 21 190 15 10 65 -37 372 -345 l355 -355 0
1538 0 1538 -3005 0 -3005 0 0 -1670z m4222 1083 c59 -57 18 -164 -64 -166
-67 -2 -112 40 -110 102 1 43 19 71 55 87 42 18 85 10 119 -23z m656 26 c64
-22 85 -113 37 -162 -88 -87 -230 30 -154 127 34 43 66 53 117 35z m-3171
-334 c104 -31 179 -133 202 -275 6 -36 11 -201 11 -367 l0 -303 -80 0 -80 0 0
311 c0 356 -4 382 -64 444 -57 60 -101 70 -180 44 -78 -26 -146 -70 -169 -107
-15 -27 -17 -64 -17 -361 l0 -331 -75 0 -75 0 0 470 0 470 74 0 75 0 3 -36 3
-36 29 23 c15 12 53 33 85 45 67 28 180 32 258 9z m809 0 c105 -31 176 -127
194 -265 5 -41 10 -211 10 -377 l0 -303 -80 0 -80 0 0 50 0 50 -50 -39 c-76
-60 -149 -84 -236 -78 -223 16 -337 222 -233 418 49 91 125 145 243 169 93 19
165 2 245 -58 l34 -25 -5 95 c-3 80 -8 101 -31 141 -45 76 -98 100 -186 86
-60 -9 -142 -48 -184 -87 l-27 -26 -55 54 -54 54 37 32 c57 50 132 92 192 108
72 19 203 20 266 1z m2184 4 c19 -5 77 -10 128 -9 l92 1 0 -471 0 -470 -80 0
-80 0 0 374 0 373 -42 28 c-90 59 -189 36 -255 -59 l-33 -48 0 -334 0 -334
-75 0 -75 0 0 470 0 470 75 0 75 0 0 -30 c0 -33 11 -38 31 -14 40 48 164 76
239 53z m-1727 -56 c8 -27 50 -170 93 -320 43 -150 80 -270 83 -267 3 2 32 93
66 202 34 108 79 250 99 315 l38 117 58 0 57 0 89 -310 c48 -170 91 -310 94
-310 4 0 44 127 89 283 45 155 86 293 90 307 7 24 12 25 89 28 45 2 82 -1 82
-6 0 -5 -65 -216 -144 -468 l-143 -459 -66 -3 -66 -3 -19 63 c-11 35 -50 170
-88 301 -37 130 -71 234 -74 230 -4 -5 -49 -140 -101 -300 l-94 -293 -66 0
-66 0 -138 453 c-76 248 -140 460 -143 470 -4 15 5 17 81 17 l86 0 14 -47z
m1257 -423 l0 -470 -80 0 -80 0 0 470 0 470 80 0 80 0 0 -470z m-2834 -691
c10 -8 15 -31 15 -68 1 -31 1 -82 2 -114 0 -69 -7 -77 -75 -77 l-48 0 0 133
c0 74 3 137 8 141 10 11 80 0 98 -15z m433 -34 l14 -50 14 44 c15 51 29 70 42
56 5 -6 -1 -43 -15 -90 -13 -44 -24 -104 -24 -132 0 -38 -4 -53 -14 -53 -14 0
-26 42 -26 94 0 17 -9 63 -20 101 -24 85 -24 87 -3 83 11 -2 23 -21 32 -53z
m891 -69 c0 -123 0 -125 -27 -146 -42 -33 -103 -9 -103 42 0 25 31 23 37 -2 3
-13 14 -20 29 -20 24 0 24 0 24 118 0 120 2 132 27 132 10 0 13 -27 13 -124z
m470 122 c0 -2 11 -64 24 -138 14 -74 21 -139 16 -144 -12 -12 -30 2 -30 25 0
31 -48 26 -60 -7 -12 -31 -36 -26 -32 7 6 49 44 244 48 251 5 7 34 12 34 6z
m510 -18 c0 -15 -7 -20 -25 -20 l-25 0 0 -120 c0 -113 -1 -120 -20 -120 -19 0
-20 7 -20 120 0 112 -1 120 -19 120 -11 0 -23 5 -26 10 -13 21 8 30 71 30 57
0 64 -2 64 -20z m459 -97 c13 -62 26 -111 29 -109 2 2 16 53 30 113 19 77 31
108 42 108 12 0 15 -23 18 -137 2 -133 2 -138 -18 -138 -17 0 -20 7 -21 53 -1
56 -2 55 -19 -10 -9 -35 -15 -43 -35 -43 -20 0 -24 7 -31 43 l-8 42 -9 -42
c-6 -25 -16 -43 -23 -43 -11 0 -14 29 -14 141 0 127 2 140 17 137 13 -2 23
-30 42 -115z m645 96 c25 -20 26 -24 26 -124 0 -101 -1 -104 -27 -125 -30 -23
-69 -21 -90 6 -6 9 -15 50 -18 91 -9 90 5 150 38 163 33 13 42 12 71 -11z"/>
<path d="M2320 1931 c-99 -20 -160 -86 -160 -170 0 -93 58 -136 174 -129 83 6
134 29 189 86 37 38 38 41 35 103 l-3 64 -55 21 c-65 26 -132 35 -180 25z"/>
<path d="M1330 1220 c0 -33 3 -40 19 -40 11 0 23 9 26 20 9 30 -4 60 -26 60
-16 0 -19 -7 -19 -40z"/>
<path d="M1326 1135 c-3 -9 -6 -32 -6 -51 0 -31 2 -34 31 -34 30 0 30 1 27 48
-2 39 -7 48 -24 50 -13 2 -24 -4 -28 -13z"/>
<path d="M3166 1159 c-15 -48 -14 -59 5 -59 16 0 18 5 12 33 -7 38 -11 45 -17
26z"/>
<path d="M4736 1244 c-3 -9 -6 -49 -6 -89 0 -89 5 -105 35 -105 30 0 34 20 28
124 -6 81 -7 86 -28 86 -13 0 -26 -7 -29 -16z"/>
</g>
</svg>
